<svg width="1200" height="1200" viewBox="0 0 1200 1200" fill="none" xmlns="http://www.w3.org/2000/svg">
  <rect width="1200" height="1200" fill="#0B0D12"/>
  <rect x="92" y="96" width="1016" height="1008" rx="40" fill="#121725" stroke="#28324A"/>
  <rect x="170" y="220" width="860" height="210" rx="22" fill="#171E30" stroke="#3B4A72"/>
  <circle cx="230" cy="292" r="26" fill="#4BD1A0"/>
  <rect x="276" y="266" width="500" height="26" rx="13" fill="#EAF1FF"/>
  <rect x="276" y="314" width="330" height="20" rx="10" fill="#9EB0D8"/>
  <rect x="170" y="486" width="860" height="210" rx="22" fill="#171E30" stroke="#3B4A72"/>
  <circle cx="230" cy="558" r="26" fill="#66A5FF"/>
  <rect x="276" y="532" width="500" height="26" rx="13" fill="#EAF1FF"/>
  <rect x="276" y="580" width="330" height="20" rx="10" fill="#9EB0D8"/>
  <g opacity="0.95">
    <rect x="170" y="760" width="270" height="150" rx="20" fill="#1B2236" stroke="#4E5F8E"/>
    <rect x="466" y="760" width="270" height="150" rx="20" fill="#1B2236" stroke="#4E5F8E"/>
    <rect x="762" y="760" width="268" height="150" rx="20" fill="#1B2236" stroke="#4E5F8E"/>
  </g>
  <text x="600" y="1035" fill="#EAF1FF" font-family="Inter, Arial, sans-serif" font-size="56" text-anchor="middle" font-weight="700">Feedback Plugins</text>
</svg>
