<svg width="1200" height="1200" viewBox="0 0 1200 1200" fill="none" xmlns="http://www.w3.org/2000/svg">
  <rect width="1200" height="1200" fill="#0A0D14"/>
  <rect x="92" y="96" width="1016" height="1008" rx="40" fill="#121A2B" stroke="#273353"/>
  <rect x="170" y="210" width="860" height="100" rx="18" fill="#1A2440" stroke="#44598B"/>
  <rect x="208" y="240" width="170" height="40" rx="12" fill="#EAF1FF"/>
  <rect x="398" y="240" width="170" height="40" rx="12" fill="#2A3659"/>
  <rect x="588" y="240" width="170" height="40" rx="12" fill="#2A3659"/>
  <rect x="778" y="240" width="170" height="40" rx="12" fill="#2A3659"/>
  <rect x="170" y="360" width="860" height="450" rx="24" fill="#171F34" stroke="#3A4A74"/>
  <rect x="225" y="430" width="340" height="24" rx="12" fill="#C8D5F4"/>
  <rect x="225" y="476" width="520" height="18" rx="9" fill="#8799C6"/>
  <rect x="225" y="516" width="450" height="18" rx="9" fill="#8799C6"/>
  <rect x="225" y="630" width="750" height="8" rx="4" fill="#50608B"/>
  <circle cx="260" cy="634" r="22" fill="#EAF1FF"/>
  <circle cx="520" cy="634" r="22" fill="#EAF1FF"/>
  <circle cx="780" cy="634" r="22" fill="#EAF1FF"/>
  <text x="600" y="1035" fill="#EAF1FF" font-family="Inter, Arial, sans-serif" font-size="56" text-anchor="middle" font-weight="700">Navigation Plugins</text>
</svg>
